# xmcd
#
# Track frame offsets:
#	150
#	14511
#	29694
#	43478
#	56256
#	70256
#	82149
#	93976
#	106636
#	118853
#	131813
#	144327
#	156916
#	169512
#	183090
#	196350
#	209696
#	222201
#	234979
#	248967
#	262300
#	276510
#	290738
#	303496
#	316627
#	330222
#
# Disc length: 4593 seconds
#
# Revision: 1
# Processed by: cddbd v1.5.2PL0 Copyright (c) Steve Scherf et al.
# Submitted via: audiograbber 1.83.01
#
DISCID=8a11ef1a
DTITLE=Jimmy Witherspoon - Urban Blues Singing Legend - CD 1
DYEAR=2006
DGENRE=Blues
TTITLE0=Confessing the Blues
TTITLE1=Hard Working Man Blues
TTITLE2=Shipyard Woman Blues
TTITLE3=Ernestine
TTITLE4=Roll on, Katy
TTITLE5=Voodoo Woman Blues
TTITLE6=I Want a Little Girl
TTITLE7=Have You Ever Loved a Woman
TTITLE8=Gone with the Blues
TTITLE9=Wandering Gal Blues
TTITLE10=Hey, Mr. Landlord
TTITLE11=Hey, Mr. Landlord (alt.)
TTITLE12=Cain River Blues
TTITLE13=How I Hate to See Xmas Come Around
TTITLE14=Third Floor Blues
TTITLE15=Money's Getting Cheaper
TTITLE16=Time's Gettin' Tougher Than Tough (alt.)
TTITLE17=Skid Row Blues
TTITLE18=How Long
TTITLE19=Ain't Nobody's Business (part 1)
TTITLE20=Ain't Nobody's Business (part 2)
TTITLE21=Back Water Blues
TTITLE22=Frogimore Blues
TTITLE23=Frogimore Blues (alt.)
TTITLE24=In the Evening, When the Sun Goes Down
TTITLE25=In the Evening (alt.)
EXTD=JSP 7778 - CD 1
EXTT0=
EXTT1=
EXTT2=
EXTT3=
EXTT4=
EXTT5=
EXTT6=
EXTT7=
EXTT8=
EXTT9=
EXTT10=
EXTT11=
EXTT12=
EXTT13=
EXTT14=
EXTT15=
EXTT16=
EXTT17=
EXTT18=
EXTT19=
EXTT20=
EXTT21=
EXTT22=
EXTT23=
EXTT24=
EXTT25=
PLAYORDER=
